<svg width="157" height="50" viewBox="0 0 157 50" fill="none" xmlns="http://www.w3.org/2000/svg">
<path d="M51.0131 25.7964H53.7532V10.6154H51.0131V25.7964ZM64.3276 26.0616C66.5594 26.0616 68.5924 25.1114 70.0509 23.5866L68.1063 21.7746C67.1561 22.8574 65.8081 23.5424 64.3276 23.5424C61.5212 23.5424 59.1568 21.1117 59.1568 18.1948C59.1568 15.3001 61.5212 12.8693 64.3276 12.8693C65.786 12.8693 67.1561 13.5544 68.0842 14.6371L70.0509 12.803C68.5924 11.3004 66.5594 10.3502 64.3276 10.3502C59.9965 10.3502 56.3504 13.93 56.3504 18.1948C56.3504 22.4597 59.9965 26.0616 64.3276 26.0616ZM83.6061 13.1345V10.6154H72.1817V25.7964H83.6061V23.2773H74.9439V19.3218H82.7885V16.8027H74.9439V13.1345H83.6061ZM86.4505 25.7964H94.1846C97.0131 25.7964 99.024 24.0949 99.024 21.6641C99.024 20.0068 97.9854 18.6147 96.2397 17.775C97.5877 17.0458 98.3832 15.963 98.3832 14.4162C98.3832 12.2064 96.527 10.6154 93.8974 10.6154H86.4505V25.7964ZM89.1906 16.8248V13.0019H93.2345C94.5824 13.0019 95.5547 13.7974 95.5547 14.9244C95.5547 16.0293 94.5824 16.8248 93.2345 16.8248H89.1906ZM89.1906 23.4099V19.0787H93.6322C95.1348 19.0787 96.1955 19.9847 96.1955 21.2443C96.1955 22.5039 95.1348 23.4099 93.6322 23.4099H89.1906ZM113.019 13.1345V10.6154H101.595V25.7964H113.019V23.2773H104.357V19.3218H112.202V16.8027H104.357V13.1345H113.019ZM128.083 25.7964L124.283 20.4046C126.47 19.7196 127.951 17.9518 127.951 15.6536C127.951 12.6925 125.52 10.6154 122.272 10.6154H115.665V25.7964H118.427V20.6919H121.366L124.946 25.7964H128.083ZM118.427 13.1566H121.962C123.841 13.1566 125.144 14.1068 125.144 15.6536C125.144 17.2004 123.841 18.1506 121.962 18.1506H118.427V13.1566ZM137.452 19.6975H141.23V22.4597C140.28 23.1447 139.043 23.5424 137.894 23.5424C135.065 23.5424 132.679 21.1117 132.679 18.1948C132.679 15.3001 135.065 12.8693 137.894 12.8693C139.374 12.8693 141.009 13.5323 141.96 14.6371L143.926 12.803C142.468 11.2783 140.103 10.3502 137.894 10.3502C133.54 10.3502 129.872 13.93 129.872 18.1948C129.872 22.4597 133.54 26.0616 137.894 26.0616C140.103 26.0616 142.468 25.1114 143.926 23.5866V17.4435H137.452V19.6975Z" fill="white"/>
<path d="M0.944763 25.5691H36.9505" stroke="#009FE3" stroke-width="0.600095" stroke-miterlimit="10" stroke-linecap="round"/>
<path fill-rule="evenodd" clip-rule="evenodd" d="M29.8834 7.29785L15.2877 0L4.33311 10.9546C4.21593 11.0718 4.21593 11.2618 4.33311 11.379C4.45029 11.4961 4.64027 11.4961 4.75744 11.379L15.4062 0.730172L29.6151 7.8346C29.7633 7.9087 29.9435 7.84863 30.0176 7.70041C30.0917 7.55219 30.0317 7.37196 29.8834 7.29785ZM15.5792 2.30629L30.527 8.92814C30.6785 8.99526 30.7469 9.1725 30.6798 9.32401C30.6127 9.47552 30.4354 9.54393 30.2839 9.47681L15.683 3.00859L4.41296 12.7025C4.28733 12.8105 4.09788 12.7963 3.98982 12.6707C3.88176 12.545 3.896 12.3556 4.02163 12.2475L15.5792 2.30629ZM31.1661 10.559L15.8661 4.61032L3.71139 13.5453C3.57787 13.6435 3.5492 13.8313 3.64735 13.9648C3.7455 14.0983 3.93331 14.127 4.06682 14.0289L15.9559 5.28909L30.9487 11.1183C31.1031 11.1783 31.277 11.1018 31.3371 10.9474C31.3971 10.7929 31.3206 10.619 31.1661 10.559ZM16.1569 6.90847L31.8095 12.1906C31.9666 12.2436 32.0509 12.4138 31.9979 12.5708C31.9449 12.7278 31.7747 12.8122 31.6177 12.7592L16.2334 7.56761L3.71961 15.3501C3.57889 15.4376 3.39387 15.3945 3.30636 15.2537C3.21884 15.113 3.26197 14.928 3.40269 14.8405L16.1569 6.90847ZM32.4529 13.8269L16.4473 9.20896L3.09884 16.1372C2.95176 16.2136 2.89441 16.3947 2.97075 16.5418C3.04709 16.6888 3.22821 16.7462 3.37529 16.6699L16.5111 9.85195L32.2865 14.4035C32.4457 14.4494 32.612 14.3576 32.658 14.1984C32.7039 14.0391 32.6121 13.8728 32.4529 13.8269ZM16.7332 11.5079L33.0923 15.4598C33.2534 15.4987 33.3524 15.6609 33.3135 15.8219C33.2746 15.983 33.1125 16.082 32.9514 16.0431L16.7854 12.1378L3.02657 17.9919C2.87408 18.0568 2.69788 17.9857 2.633 17.8333C2.56812 17.6808 2.63914 17.5046 2.79162 17.4397L16.7332 11.5079ZM33.7357 17.0933L17.0226 13.8053L2.48446 18.7399C2.32754 18.7931 2.24351 18.9635 2.29677 19.1204C2.35003 19.2773 2.52042 19.3614 2.67734 19.3081L17.0638 14.4251L33.6199 17.6821C33.7825 17.7141 33.9402 17.6082 33.9722 17.4456C34.0042 17.283 33.8983 17.1253 33.7357 17.0933ZM17.3117 16.0976L34.3757 18.7274C34.5395 18.7527 34.6518 18.9059 34.6266 19.0697C34.6013 19.2334 34.4481 19.3458 34.2843 19.3205L17.343 16.7095L2.32863 20.6225C2.16827 20.6643 2.0044 20.5682 1.96261 20.4078C1.92082 20.2475 2.01693 20.0836 2.17729 20.0418L17.3117 16.0976ZM35.0198 20.3621L17.5962 18.3927L1.87346 21.3455C1.71059 21.3761 1.60336 21.5329 1.63395 21.6958C1.66453 21.8586 1.82135 21.9659 1.98422 21.9353L17.6184 18.9991L34.9524 20.9584C35.117 20.977 35.2656 20.8586 35.2842 20.6939C35.3028 20.5293 35.1844 20.3807 35.0198 20.3621ZM17.8845 20.6869L35.6643 21.9973C35.8296 22.0095 35.9537 22.1533 35.9415 22.3186C35.9293 22.4838 35.7855 22.6079 35.6202 22.5958L17.8985 21.2897L1.6368 23.2505C1.47228 23.2704 1.32283 23.1531 1.30299 22.9885C1.28316 22.824 1.40044 22.6746 1.56496 22.6547L17.8845 20.6869ZM18.1681 22.9803L36.305 23.6329C36.4706 23.6388 36.6001 23.7779 36.5941 23.9435C36.5881 24.1091 36.4491 24.2385 36.2835 24.2326L18.1747 23.581L1.29009 24.5603C1.12465 24.5699 0.982764 24.4436 0.973169 24.2782C0.963573 24.1127 1.0899 23.9708 1.25534 23.9612L18.1681 22.9803Z" fill="url(#paint0_linear_42_2150)"/>
<path fill-rule="evenodd" clip-rule="evenodd" d="M36.9221 26.8667C36.9301 27.0322 36.8024 27.1728 36.6369 27.1808L16.2837 28.1616L1.5875 27.5049C1.42195 27.4975 1.29375 27.3573 1.30115 27.1918C1.30854 27.0262 1.44874 26.898 1.61429 26.9054L16.2827 27.5609L36.608 26.5814C36.7735 26.5734 36.9142 26.7011 36.9221 26.8667ZM36.593 28.1597C36.6094 28.3246 36.489 28.4716 36.3241 28.488L16.5524 30.4551L2.22559 29.1403C2.06057 29.1251 1.93908 28.9791 1.95422 28.8141C1.96937 28.6491 2.11542 28.5276 2.28043 28.5427L16.5501 29.8523L36.2647 27.8908C36.4296 27.8744 36.5766 27.9948 36.593 28.1597ZM36.016 29.7942C36.1798 29.769 36.2921 29.6158 36.267 29.452C36.2418 29.2882 36.0886 29.1759 35.9248 29.201L16.8135 32.1388L2.95105 30.1847C2.78696 30.1615 2.63518 30.2758 2.61205 30.4399C2.58892 30.604 2.70319 30.7557 2.86728 30.7789L16.8173 32.7454L36.016 29.7942ZM35.9358 30.7437C35.9702 30.9058 35.8666 31.065 35.7044 31.0994L17.086 35.0406L3.50422 32.4126C3.34152 32.3811 3.23515 32.2237 3.26663 32.061C3.29811 31.8983 3.45552 31.792 3.61822 31.8234L17.0807 34.4283L35.5802 30.5123C35.7423 30.478 35.9015 30.5816 35.9358 30.7437ZM35.3934 32.4075C35.5532 32.3639 35.6474 32.1989 35.6037 32.039C35.56 31.8792 35.395 31.785 35.2352 31.8287L17.3479 36.7168L4.28991 33.4632C4.12911 33.4232 3.96628 33.521 3.92622 33.6818C3.88615 33.8426 3.98403 34.0054 4.14482 34.0455L17.3549 37.337L35.3934 32.4075ZM35.2702 33.3299C35.3235 33.4868 35.2394 33.6572 35.0825 33.7104L17.6198 39.6346L4.78494 35.6773C4.62658 35.6285 4.53779 35.4606 4.58661 35.3022C4.63544 35.1439 4.80339 35.0551 4.96174 35.1039L17.6109 39.0039L34.8897 33.1422C35.0466 33.0889 35.217 33.173 35.2702 33.3299ZM34.7719 35.0121C34.9252 34.9492 34.9986 34.774 34.9357 34.6207C34.8729 34.4673 34.6977 34.3939 34.5443 34.4568L17.878 41.2855L5.63379 36.7455C5.47842 36.6878 5.30576 36.7671 5.24815 36.9225C5.19054 37.0778 5.26979 37.2505 5.42516 37.3081L17.8889 41.9295L34.7719 35.0121ZM34.5999 35.9116C34.6723 36.0607 34.6101 36.2402 34.4611 36.3126L18.154 44.2303L6.06126 38.938C5.90945 38.8715 5.84024 38.6946 5.90668 38.5428C5.97312 38.391 6.15005 38.3218 6.30186 38.3882L18.1409 43.5696L34.199 35.7728C34.348 35.7004 34.5275 35.7626 34.5999 35.9116ZM34.1539 37.6159C34.2981 37.5342 34.3487 37.3511 34.267 37.2069C34.1853 37.0627 34.0022 37.0121 33.858 37.0938L18.4079 45.8517L6.97378 40.0319C6.8261 39.9568 6.64544 40.0155 6.57027 40.1632C6.49511 40.3109 6.55389 40.4916 6.70157 40.5667L18.4232 46.5328L34.1539 37.6159ZM33.9289 38.4987C34.0197 38.6374 33.9809 38.8233 33.8423 38.9141L18.6884 48.8375L7.33819 42.1946C7.19517 42.1109 7.14709 41.9271 7.23079 41.7841C7.3145 41.6411 7.49829 41.593 7.64131 41.6767L18.6707 48.1318L33.5135 38.4121C33.6521 38.3213 33.8381 38.3601 33.9289 38.4987ZM33.5299 40.2113C33.6625 40.1119 33.6894 39.9238 33.5899 39.7913C33.4905 39.6587 33.3024 39.6318 33.1699 39.7313L18.9374 50.4056L8.31236 43.3222C8.17448 43.2303 7.98819 43.2675 7.89627 43.4054C7.80435 43.5433 7.8416 43.7296 7.97949 43.8215L18.9578 51.1404L33.5299 40.2113Z" fill="url(#paint1_linear_42_2150)"/>
<defs>
<linearGradient id="paint0_linear_42_2150" x1="18.7835" y1="0" x2="22.2181" y2="24.5685" gradientUnits="userSpaceOnUse">
<stop stop-color="white"/>
<stop offset="1" stop-color="#69D2FF"/>
</linearGradient>
<linearGradient id="paint1_linear_42_2150" x1="19.1117" y1="26.5811" x2="22.5458" y2="51.148" gradientUnits="userSpaceOnUse">
<stop stop-color="#23BDFF"/>
<stop offset="1" stop-color="#009FE3" stop-opacity="0"/>
</linearGradient>
</defs>
</svg>
