<svg width="24" height="25" viewBox="0 0 24 25" fill="none" xmlns="http://www.w3.org/2000/svg">
<path d="M23.6744 22.3055C23.6744 23.0202 23.4056 23.7055 22.9271 24.2108C22.4486 24.7161 21.7996 25 21.1229 25H2.55152C1.87484 24.9999 1.22591 24.716 0.74743 24.2107C0.268949 23.7054 9.81043e-05 23.0201 0 22.3055L0 2.69447C0.000196157 1.97991 0.269079 1.29468 0.747539 0.789419C1.226 0.284154 1.87487 0.000207147 2.55152 0H21.1225C21.7992 0.000103601 22.4481 0.284017 22.9266 0.789305C23.4051 1.29459 23.674 1.97988 23.674 2.69447V22.3055H23.6744Z" fill="#FF0101"/>
<path d="M17.072 3.66749C15.3279 5.51017 13.5829 7.35285 11.8402 9.19631C10.0953 7.35441 8.3504 5.51134 6.60475 3.66749C4.58677 1.53607 1.45731 4.83968 3.47566 6.97267C5.21984 8.81378 6.9655 10.6572 8.70745 12.4976C6.96402 14.3395 5.21799 16.1829 3.47566 18.0225C1.45805 20.1539 4.58566 23.4575 6.60475 21.328C8.34892 19.485 10.0938 17.6423 11.8402 15.7992C13.5852 17.6419 15.3286 19.4838 17.072 21.328C19.0904 23.4583 22.2187 20.1519 20.2022 18.0233C18.4569 16.1806 16.712 14.3387 14.9667 12.4944L20.2022 6.96564C22.2195 4.83499 19.0922 1.52982 17.072 3.66085" fill="white"/>
</svg>
