<svg width="200" height="200" viewBox="0 0 200 200" fill="none" xmlns="http://www.w3.org/2000/svg">
<path d="M43.0159 79.7223C42.3493 83.8223 45.1326 87.7501 48.927 90.1834C52.8937 92.7223 58.5493 94.1112 65.2048 93.1279C68.1799 92.7242 71.0344 91.6897 73.5772 90.0935C76.1201 88.4972 78.2926 86.3762 79.9493 83.8723C82.7493 79.6335 83.8993 74.4723 82.6159 70.6446C82.4669 70.2024 82.209 69.805 81.8658 69.4888C81.5227 69.1727 81.1055 68.9481 80.6527 68.8357C80.1998 68.7233 79.726 68.7268 79.2749 68.8458C78.8238 68.9649 78.4099 69.1956 78.0715 69.5168C68.0937 78.9835 56.827 81.3112 46.7215 77.5612C46.3365 77.419 45.9247 77.3638 45.5158 77.3997C45.1069 77.4356 44.711 77.5617 44.3567 77.7689C44.0024 77.9761 43.6983 78.2592 43.4665 78.598C43.2347 78.9367 43.0808 79.3226 43.0159 79.7279V79.7223Z" fill="white"/>
<path d="M154.55 79.7223C155.211 83.8223 152.428 87.7501 148.634 90.1834C144.667 92.7223 139.017 94.1112 132.356 93.1279C129.382 92.7235 126.528 91.6886 123.986 90.0924C121.445 88.4962 119.273 86.3755 117.617 83.8723C114.817 79.6335 113.661 74.4723 114.95 70.6446C115.099 70.2024 115.357 69.805 115.7 69.4888C116.043 69.1727 116.461 68.9481 116.913 68.8357C117.366 68.7233 117.84 68.7268 118.291 68.8458C118.742 68.9649 119.156 69.1956 119.495 69.5168C129.472 78.9835 140.739 81.3112 150.839 77.5612C151.224 77.418 151.637 77.362 152.046 77.3975C152.456 77.4329 152.853 77.5588 153.208 77.766C153.563 77.9733 153.867 78.2568 154.099 78.5961C154.332 78.9353 154.486 79.3219 154.55 79.7279V79.7223Z" fill="white"/>
<path d="M151.434 138.889C141.878 119.1 122.434 105.556 100 105.556C77.5671 105.556 58.1226 119.1 48.5671 138.889C45.9615 144.278 50.3226 150 56.3115 150H143.689C149.678 150 154.039 144.278 151.434 138.889Z" fill="white"/>
<path fill-rule="evenodd" clip-rule="evenodd" d="M100 200C155.228 200 200 155.228 200 100C200 44.7722 155.228 0 100 0C44.7722 0 0 44.7722 0 100C0 155.228 44.7722 200 100 200ZM100 188.889C149.094 188.889 188.889 149.094 188.889 100C188.889 50.9056 149.094 11.1111 100 11.1111C50.9056 11.1111 11.1111 50.9056 11.1111 100C11.1111 149.094 50.9056 188.889 100 188.889Z" fill="white"/>
</svg>
